
<?xml version="1.0" encoding="utf-8"?>
<!-- Generator: Adobe Illustrator 25.2.1, SVG Export Plug-In . SVG Version: 6.00 Build 0)  -->
<svg version="1.1" id="katman_1" xmlns="http://www.w3.org/2000/svg" xmlns:xlink="http://www.w3.org/1999/xlink" x="0px" y="0px"
	 viewBox="0 0 1080 1080" style="enable-background:new 0 0 1080 1080;" xml:space="preserve">
<style type="text/css">
	.st0{fill:#DBFF4D;}
</style>
<path d="M539.6,0.4L539.6,0.4c298,0,539.6,241.6,539.6,539.6v0c0,298-241.6,539.6-539.6,539.6h0C241.6,1079.6,0,838,0,540l0,0
	C0,242,241.6,0.4,539.6,0.4z"/>
<g>
	<path class="st0" d="M539.6,193.1L239.2,366.6v346.9l300.4,173.4L840,713.4V366.6L539.6,193.1z M811.4,370.7l-101.2,57.4
		l-147.5-201L811.4,370.7z M516.5,227.1l-147.5,201l-101.2-57.4L516.5,227.1z M257,389.2l100.6,57.1L257,674.6V389.2z M372.9,465
		l154.8,268.1l-256-38.6L372.9,465z M528.9,860.1L282.5,717.8L528.9,755V860.1z M393.2,431.4l146.4-199.5L686,431.4H393.2z
		 M550.3,860.1V755l246.4-37.2L550.3,860.1z M551.5,733.1L706.3,465l101.2,229.5L551.5,733.1z M822.1,674.6L721.5,446.3l100.6-57.1
		V674.6z"/>
</g>
</svg>
