<svg xmlns="http://www.w3.org/2000/svg" width="32" height="32" viewBox="0 0 32 32">
  <circle cx="16" cy="16" r="16" fill="#0A0A1A"/>
  <g transform="translate(16, 16) scale(0.8)">
    <path fill="#22C7FF" d="M0,-8.5L-5.2,0v6.1l5.2,3L5.2,0v-6.1L0,-8.5z M3.8,-6.2l-1.8,1l-2.6-3.5L3.8,-6.2z M-1.2,-9.8l-2.6,3.5l-1.8-1L-1.2,-9.8z M-4.8,-5.8l1.7,1L-4.8,1.2V-5.8z M-2.5,-3.5l2.7,4.7l-4.5-0.7L-2.5,-3.5z M0.4,5.5L-4.2,2.5L0.4,3.3V5.5z M-2.6,-4.3l2.6-3.5L2.6,-4.3H-2.6z M1.6,5.5V3.3l4.3-0.7L1.6,5.5z M1.7,2.4L3.9,-3.5l1.8,4L1.7,2.4z M4.8,1.2L3.1,-2.8l1.7-1V1.2z"/>  
  </g>
</svg>
