<?xml version="1.0" encoding="UTF-8"?>
<svg width="32" height="32" viewBox="0 0 32 32" fill="none" xmlns="http://www.w3.org/2000/svg">
    <path d="M16 2C8.268 2 2 8.268 2 16s6.268 14 14 14 14-6.268 14-14S23.732 2 16 2zm0 25.2c-6.188 0-11.2-5.012-11.2-11.2S9.812 4.8 16 4.8s11.2 5.012 11.2 11.2-5.012 11.2-11.2 11.2z" fill="#FFFFFF"/>
    <path d="M16 7.6c-4.625 0-8.4 3.775-8.4 8.4s3.775 8.4 8.4 8.4 8.4-3.775 8.4-8.4-3.775-8.4-8.4-8.4zm0 14c-3.094 0-5.6-2.506-5.6-5.6s2.506-5.6 5.6-5.6 5.6 2.506 5.6 5.6-2.506 5.6-5.6 5.6z" fill="#FF4D4D"/>
    <circle cx="16" cy="16" r="3.2" fill="#FFFFFF"/>
</svg> 